<?xml version="1.0" encoding="UTF-8" standalone="no"?>
<svg
   xmlns:sketch="http://www.bohemiancoding.com/sketch/ns"
   xmlns:dc="http://purl.org/dc/elements/1.1/"
   xmlns:cc="http://creativecommons.org/ns#"
   xmlns:rdf="http://www.w3.org/1999/02/22-rdf-syntax-ns#"
   xmlns:svg="http://www.w3.org/2000/svg"
   xmlns="http://www.w3.org/2000/svg"
   xmlns:sodipodi="http://sodipodi.sourceforge.net/DTD/sodipodi-0.dtd"
   xmlns:inkscape="http://www.inkscape.org/namespaces/inkscape"
   width="4096"
   height="4096"
   viewBox="0 0 4096 4096"
   version="1.1"
   id="svg15"
   sodipodi:docname="cc-white2.svg"

   inkscape:export-xdpi="96"
   inkscape:export-ydpi="96"
   inkscape:version="1.0.2 (e86c870879, 2021-01-15)">
  <metadata
     id="metadata19">
    <rdf:RDF>
      <cc:Work
         rdf:about="">
        <dc:format>image/svg+xml</dc:format>
        <dc:type
           rdf:resource="http://purl.org/dc/dcmitype/StillImage" />
        <dc:title>ic_cast_white_24dp</dc:title>
      </cc:Work>
    </rdf:RDF>
  </metadata>
  <sodipodi:namedview
     pagecolor="#ffffff"
     bordercolor="#ffffff"
     borderopacity="1"
     objecttolerance="10"
     gridtolerance="10"
     guidetolerance="10"
     inkscape:pageopacity="0"
     inkscape:pageshadow="2"
     inkscape:window-width="1461"
     inkscape:window-height="998"
     id="namedview17"
     showgrid="false"
     inkscape:zoom="0.21761308"
     inkscape:cx="1324.2973"
     inkscape:cy="2282.7438"
     inkscape:window-x="939"
     inkscape:window-y="479"
     inkscape:window-maximized="0"
     inkscape:current-layer="ic_remove_circle_white_24dp" />
  <!-- Generator: Sketch 3.2.2 (9983) - http://www.bohemiancoding.com/sketch -->
  <title
     id="title2">ic_cast_white_24dp</title>
  <desc
     id="desc4">Created with Sketch.</desc>
  <defs
     id="defs6" />
  <g
     id="Page-1"
     stroke="none"
     stroke-width="1"
     fill="none"
     fill-rule="evenodd"
     sketch:type="MSPage"
     inkscape:export-xdpi="96"
     inkscape:export-ydpi="96"
     transform="scale(170.66667)">
    <g
       id="ic_cast_white_24dp"
       sketch:type="MSArtboardGroup">
      <g
         id="ic_remove_circle_white_24dp"
         sketch:type="MSLayerGroup">
        <path
           d="m 1,18 v 3 H 4 C 4,19.34 2.66,18 1,18 Z m 0,-4 v 2 c 2.76,0 5,2.24 5,5 H 8 C 8,17.13 4.87,14 1,14 Z m 0,-4 v 2 c 4.97,0 9,4.03 9,9 h 2 C 12,14.92 7.07,10 1,10 Z M 21,3 H 3 C 1.9,3 1,3.9 1,5 V 8 H 3 V 5 h 18 v 14 h -7 v 2 h 7 c 1.1,0 2,-0.9 2,-2 V 5 C 23,3.9 22.1,3 21,3 Z"
           id="cast"
           fill="#ffffff"
           sketch:type="MSShapeGroup"
           style="fill:#ffffff;fill-opacity:1" />
        <rect
           id="bounds"
           sketch:type="MSShapeGroup"
           x="0"
           y="0"
           width="24"
           height="24" />
      </g>
    </g>
    <g
       id="assets"
       sketch:type="MSLayerGroup"
       transform="translate(-208,-106)">
      <g
         id="64px"
         transform="translate(0,114)" />
    </g>
  </g>
</svg>
